<?xml version="1.0" encoding="utf-8"?>
<!-- Generator: Adobe Illustrator 16.0.0, SVG Export Plug-In . SVG Version: 6.00 Build 0)  -->
<!DOCTYPE svg PUBLIC "-//W3C//DTD SVG 1.1//EN" "http://www.w3.org/Graphics/SVG/1.1/DTD/svg11.dtd">
<svg version="1.1" id="Livello_1" xmlns="http://www.w3.org/2000/svg" xmlns:xlink="http://www.w3.org/1999/xlink" x="0px" y="0px"
	 width="283.46px" height="283.46px" viewBox="0 0 283.46 283.46" enable-background="new 0 0 283.46 283.46" xml:space="preserve">
<g>
	<path fill="#FFFFFF" d="M26.874,68.591C7.861,35.963,6.339,33.286,6.339,33.286c-3.991-6.911-1.827-9.607,7.291-9.614l257.257-0.01
		c10.31,0.01,11.87,2.714,6.702,11.853l-14.284,24.891c-5.12,9.471-12.15,13.093-22.45,13.055L44.813,73.465
		C38.82,73.463,30.069,73.465,26.874,68.591z"/>
	<path fill="#D0D9DB" d="M63.321,131.208c-0.592-6.893,3.414-8.986,9.405-8.983l42.355,0.02l98.676,0.134
		c11.616,0.018,12.358,1.364,6.438,11.669l-15.402,26.747c-3.862,6.985-9.736,10.022-17.485,10.02
		c-11.289-0.007-22.582-0.085-33.873,0.033c-7.813,0.072-9.362,2.642-5.537,9.448l20.25,34.974c1.941,3.255,2.367,5.758,0.22,9.27
		l-20.433,34.868c-3.814,6.429-6.995,6.629-10.6,0.392L63.321,131.208z"/>
</g>
</svg>
